<mxfile host="app.diagrams.net" modified="2021-12-08T10:08:27.281Z" agent="5.0 (X11)" etag="ipSHNZovTwsp4g9vEWPZ" version="15.9.1" type="github">
  <diagram id="C5RBs43oDa-KdzZeNtuy" name="Page-1">
    <mxGraphModel dx="2875" dy="794" grid="1" gridSize="10" guides="1" tooltips="1" connect="1" arrows="1" fold="1" page="1" pageScale="1" pageWidth="827" pageHeight="1169" math="0" shadow="0">
      <root>
        <mxCell id="WIyWlLk6GJQsqaUBKTNV-0" />
        <mxCell id="WIyWlLk6GJQsqaUBKTNV-1" parent="WIyWlLk6GJQsqaUBKTNV-0" />
        <mxCell id="OTEBd1sAaOgXrENn2hJH-17" value="Naiwny" style="rounded=0;whiteSpace=wrap;html=1;verticalAlign=top;" parent="WIyWlLk6GJQsqaUBKTNV-1" vertex="1">
          <mxGeometry x="-60" y="40" width="560" height="900" as="geometry" />
        </mxCell>
        <mxCell id="OTEBd1sAaOgXrENn2hJH-2" style="edgeStyle=orthogonalEdgeStyle;rounded=0;orthogonalLoop=1;jettySize=auto;html=1;exitX=0.5;exitY=1;exitDx=0;exitDy=0;entryX=0.5;entryY=0;entryDx=0;entryDy=0;" parent="WIyWlLk6GJQsqaUBKTNV-1" source="WIyWlLk6GJQsqaUBKTNV-3" target="OTEBd1sAaOgXrENn2hJH-1" edge="1">
          <mxGeometry relative="1" as="geometry" />
        </mxCell>
        <mxCell id="WIyWlLk6GJQsqaUBKTNV-3" value="naiwny(source, toFind)" style="rounded=1;whiteSpace=wrap;html=1;fontSize=12;glass=0;strokeWidth=1;shadow=0;" parent="WIyWlLk6GJQsqaUBKTNV-1" vertex="1">
          <mxGeometry x="140" y="80" width="160" height="40" as="geometry" />
        </mxCell>
        <mxCell id="WIyWlLk6GJQsqaUBKTNV-4" value="Yes" style="rounded=0;html=1;jettySize=auto;orthogonalLoop=1;fontSize=11;endArrow=block;endFill=0;endSize=8;strokeWidth=1;shadow=0;labelBackgroundColor=none;edgeStyle=orthogonalEdgeStyle;" parent="WIyWlLk6GJQsqaUBKTNV-1" edge="1">
          <mxGeometry y="20" relative="1" as="geometry">
            <mxPoint as="offset" />
            <mxPoint x="220" y="250" as="sourcePoint" />
          </mxGeometry>
        </mxCell>
        <mxCell id="WIyWlLk6GJQsqaUBKTNV-5" value="No" style="edgeStyle=orthogonalEdgeStyle;rounded=0;html=1;jettySize=auto;orthogonalLoop=1;fontSize=11;endArrow=block;endFill=0;endSize=8;strokeWidth=1;shadow=0;labelBackgroundColor=none;" parent="WIyWlLk6GJQsqaUBKTNV-1" edge="1">
          <mxGeometry y="10" relative="1" as="geometry">
            <mxPoint as="offset" />
            <mxPoint x="270" y="210" as="sourcePoint" />
          </mxGeometry>
        </mxCell>
        <mxCell id="WIyWlLk6GJQsqaUBKTNV-8" value="No" style="rounded=0;html=1;jettySize=auto;orthogonalLoop=1;fontSize=11;endArrow=block;endFill=0;endSize=8;strokeWidth=1;shadow=0;labelBackgroundColor=none;edgeStyle=orthogonalEdgeStyle;" parent="WIyWlLk6GJQsqaUBKTNV-1" edge="1">
          <mxGeometry x="0.3333" y="20" relative="1" as="geometry">
            <mxPoint as="offset" />
            <mxPoint x="220" y="370" as="sourcePoint" />
          </mxGeometry>
        </mxCell>
        <mxCell id="WIyWlLk6GJQsqaUBKTNV-9" value="Yes" style="edgeStyle=orthogonalEdgeStyle;rounded=0;html=1;jettySize=auto;orthogonalLoop=1;fontSize=11;endArrow=block;endFill=0;endSize=8;strokeWidth=1;shadow=0;labelBackgroundColor=none;" parent="WIyWlLk6GJQsqaUBKTNV-1" edge="1">
          <mxGeometry y="10" relative="1" as="geometry">
            <mxPoint as="offset" />
            <mxPoint x="320" y="330" as="targetPoint" />
          </mxGeometry>
        </mxCell>
        <mxCell id="OTEBd1sAaOgXrENn2hJH-15" style="edgeStyle=orthogonalEdgeStyle;rounded=0;orthogonalLoop=1;jettySize=auto;html=1;exitX=0.5;exitY=1;exitDx=0;exitDy=0;entryX=0.5;entryY=0;entryDx=0;entryDy=0;" parent="WIyWlLk6GJQsqaUBKTNV-1" source="OTEBd1sAaOgXrENn2hJH-1" target="OTEBd1sAaOgXrENn2hJH-14" edge="1">
          <mxGeometry relative="1" as="geometry" />
        </mxCell>
        <mxCell id="OTEBd1sAaOgXrENn2hJH-1" value="&lt;div&gt;for i in range(0, len(source) - len(toFind)&lt;/div&gt;&lt;div&gt;&lt;br&gt;&lt;/div&gt;" style="whiteSpace=wrap;html=1;aspect=fixed;verticalAlign=top;" parent="WIyWlLk6GJQsqaUBKTNV-1" vertex="1">
          <mxGeometry x="-50" y="180" width="540" height="540" as="geometry" />
        </mxCell>
        <mxCell id="OTEBd1sAaOgXrENn2hJH-12" style="edgeStyle=orthogonalEdgeStyle;rounded=0;orthogonalLoop=1;jettySize=auto;html=1;exitX=0.5;exitY=1;exitDx=0;exitDy=0;entryX=0.5;entryY=0;entryDx=0;entryDy=0;" parent="WIyWlLk6GJQsqaUBKTNV-1" source="OTEBd1sAaOgXrENn2hJH-3" target="OTEBd1sAaOgXrENn2hJH-11" edge="1">
          <mxGeometry relative="1" as="geometry" />
        </mxCell>
        <mxCell id="OTEBd1sAaOgXrENn2hJH-13" value="Else" style="edgeLabel;html=1;align=center;verticalAlign=middle;resizable=0;points=[];" parent="OTEBd1sAaOgXrENn2hJH-12" vertex="1" connectable="0">
          <mxGeometry x="0.1405" relative="1" as="geometry">
            <mxPoint as="offset" />
          </mxGeometry>
        </mxCell>
        <mxCell id="OTEBd1sAaOgXrENn2hJH-3" value="for j in range(0, len(toFind)" style="rounded=0;whiteSpace=wrap;html=1;verticalAlign=top;" parent="WIyWlLk6GJQsqaUBKTNV-1" vertex="1">
          <mxGeometry x="-30" y="220" width="500" height="320" as="geometry" />
        </mxCell>
        <mxCell id="OTEBd1sAaOgXrENn2hJH-6" style="edgeStyle=orthogonalEdgeStyle;rounded=0;orthogonalLoop=1;jettySize=auto;html=1;exitX=1;exitY=0.5;exitDx=0;exitDy=0;" parent="WIyWlLk6GJQsqaUBKTNV-1" source="OTEBd1sAaOgXrENn2hJH-4" target="OTEBd1sAaOgXrENn2hJH-5" edge="1">
          <mxGeometry relative="1" as="geometry" />
        </mxCell>
        <mxCell id="OTEBd1sAaOgXrENn2hJH-7" value="&lt;div&gt;True&lt;/div&gt;" style="edgeLabel;html=1;align=center;verticalAlign=middle;resizable=0;points=[];" parent="OTEBd1sAaOgXrENn2hJH-6" vertex="1" connectable="0">
          <mxGeometry x="0.1273" y="-1" relative="1" as="geometry">
            <mxPoint as="offset" />
          </mxGeometry>
        </mxCell>
        <mxCell id="OTEBd1sAaOgXrENn2hJH-9" style="edgeStyle=orthogonalEdgeStyle;rounded=0;orthogonalLoop=1;jettySize=auto;html=1;exitX=0;exitY=0.5;exitDx=0;exitDy=0;" parent="WIyWlLk6GJQsqaUBKTNV-1" source="OTEBd1sAaOgXrENn2hJH-4" target="OTEBd1sAaOgXrENn2hJH-8" edge="1">
          <mxGeometry relative="1" as="geometry" />
        </mxCell>
        <mxCell id="OTEBd1sAaOgXrENn2hJH-10" value="False" style="edgeLabel;html=1;align=center;verticalAlign=middle;resizable=0;points=[];" parent="OTEBd1sAaOgXrENn2hJH-9" vertex="1" connectable="0">
          <mxGeometry x="-0.0667" y="2" relative="1" as="geometry">
            <mxPoint as="offset" />
          </mxGeometry>
        </mxCell>
        <mxCell id="OTEBd1sAaOgXrENn2hJH-4" value="if source[i + j] != toFind[j]" style="rhombus;whiteSpace=wrap;html=1;" parent="WIyWlLk6GJQsqaUBKTNV-1" vertex="1">
          <mxGeometry x="105" y="260" width="230" height="80" as="geometry" />
        </mxCell>
        <mxCell id="OTEBd1sAaOgXrENn2hJH-5" value="break" style="rounded=0;whiteSpace=wrap;html=1;" parent="WIyWlLk6GJQsqaUBKTNV-1" vertex="1">
          <mxGeometry x="335" y="350" width="120" height="60" as="geometry" />
        </mxCell>
        <mxCell id="OTEBd1sAaOgXrENn2hJH-8" value="continue" style="rounded=0;whiteSpace=wrap;html=1;" parent="WIyWlLk6GJQsqaUBKTNV-1" vertex="1">
          <mxGeometry x="-10" y="350" width="120" height="60" as="geometry" />
        </mxCell>
        <mxCell id="OTEBd1sAaOgXrENn2hJH-11" value="return i" style="rounded=1;whiteSpace=wrap;html=1;" parent="WIyWlLk6GJQsqaUBKTNV-1" vertex="1">
          <mxGeometry x="160" y="620" width="120" height="60" as="geometry" />
        </mxCell>
        <mxCell id="OTEBd1sAaOgXrENn2hJH-14" value="return -1" style="rounded=1;whiteSpace=wrap;html=1;" parent="WIyWlLk6GJQsqaUBKTNV-1" vertex="1">
          <mxGeometry x="160" y="750" width="120" height="60" as="geometry" />
        </mxCell>
        <mxCell id="OTEBd1sAaOgXrENn2hJH-18" value="Knuth Morris pratt" style="rounded=0;whiteSpace=wrap;html=1;verticalAlign=top;" parent="WIyWlLk6GJQsqaUBKTNV-1" vertex="1">
          <mxGeometry x="-710" y="40" width="650" height="900" as="geometry" />
        </mxCell>
        <mxCell id="OTEBd1sAaOgXrENn2hJH-21" style="edgeStyle=orthogonalEdgeStyle;rounded=0;orthogonalLoop=1;jettySize=auto;html=1;exitX=0.5;exitY=1;exitDx=0;exitDy=0;entryX=0.5;entryY=0;entryDx=0;entryDy=0;" parent="WIyWlLk6GJQsqaUBKTNV-1" source="OTEBd1sAaOgXrENn2hJH-19" target="OTEBd1sAaOgXrENn2hJH-20" edge="1">
          <mxGeometry relative="1" as="geometry" />
        </mxCell>
        <mxCell id="OTEBd1sAaOgXrENn2hJH-19" value="knuth_morris_pratt(source, toFind)" style="rounded=1;whiteSpace=wrap;html=1;fontSize=12;glass=0;strokeWidth=1;shadow=0;" parent="WIyWlLk6GJQsqaUBKTNV-1" vertex="1">
          <mxGeometry x="-445" y="80" width="210" height="40" as="geometry" />
        </mxCell>
        <mxCell id="OTEBd1sAaOgXrENn2hJH-23" style="edgeStyle=orthogonalEdgeStyle;rounded=0;orthogonalLoop=1;jettySize=auto;html=1;exitX=0.5;exitY=1;exitDx=0;exitDy=0;entryX=0.5;entryY=0;entryDx=0;entryDy=0;" parent="WIyWlLk6GJQsqaUBKTNV-1" source="OTEBd1sAaOgXrENn2hJH-20" target="OTEBd1sAaOgXrENn2hJH-22" edge="1">
          <mxGeometry relative="1" as="geometry" />
        </mxCell>
        <mxCell id="OTEBd1sAaOgXrENn2hJH-20" value="p = pomocnicza_kmp(to_find)" style="shape=parallelogram;perimeter=parallelogramPerimeter;whiteSpace=wrap;html=1;fixedSize=1;" parent="WIyWlLk6GJQsqaUBKTNV-1" vertex="1">
          <mxGeometry x="-440" y="140" width="200" height="60" as="geometry" />
        </mxCell>
        <mxCell id="OTEBd1sAaOgXrENn2hJH-25" style="edgeStyle=orthogonalEdgeStyle;rounded=0;orthogonalLoop=1;jettySize=auto;html=1;exitX=0.5;exitY=1;exitDx=0;exitDy=0;entryX=0.5;entryY=0;entryDx=0;entryDy=0;" parent="WIyWlLk6GJQsqaUBKTNV-1" source="OTEBd1sAaOgXrENn2hJH-22" target="OTEBd1sAaOgXrENn2hJH-24" edge="1">
          <mxGeometry relative="1" as="geometry" />
        </mxCell>
        <mxCell id="OTEBd1sAaOgXrENn2hJH-22" value="&lt;div&gt;i = 0&lt;/div&gt;&lt;div&gt;j = 0&lt;br&gt;&lt;/div&gt;" style="rounded=0;whiteSpace=wrap;html=1;" parent="WIyWlLk6GJQsqaUBKTNV-1" vertex="1">
          <mxGeometry x="-400" y="230" width="120" height="40" as="geometry" />
        </mxCell>
        <mxCell id="OTEBd1sAaOgXrENn2hJH-27" value="True" style="edgeStyle=orthogonalEdgeStyle;rounded=0;orthogonalLoop=1;jettySize=auto;html=1;exitX=0.5;exitY=1;exitDx=0;exitDy=0;entryX=0.5;entryY=0;entryDx=0;entryDy=0;" parent="WIyWlLk6GJQsqaUBKTNV-1" source="OTEBd1sAaOgXrENn2hJH-24" target="OTEBd1sAaOgXrENn2hJH-26" edge="1">
          <mxGeometry relative="1" as="geometry" />
        </mxCell>
        <mxCell id="OTEBd1sAaOgXrENn2hJH-54" value="False" style="edgeStyle=orthogonalEdgeStyle;rounded=0;orthogonalLoop=1;jettySize=auto;html=1;exitX=1;exitY=0.5;exitDx=0;exitDy=0;entryX=0.5;entryY=0;entryDx=0;entryDy=0;" parent="WIyWlLk6GJQsqaUBKTNV-1" source="OTEBd1sAaOgXrENn2hJH-24" target="OTEBd1sAaOgXrENn2hJH-53" edge="1">
          <mxGeometry relative="1" as="geometry" />
        </mxCell>
        <mxCell id="OTEBd1sAaOgXrENn2hJH-24" value="i &amp;lt; len(source) - len(toFind) + 2" style="rhombus;whiteSpace=wrap;html=1;" parent="WIyWlLk6GJQsqaUBKTNV-1" vertex="1">
          <mxGeometry x="-450" y="300" width="220" height="80" as="geometry" />
        </mxCell>
        <mxCell id="OTEBd1sAaOgXrENn2hJH-29" style="edgeStyle=orthogonalEdgeStyle;rounded=0;orthogonalLoop=1;jettySize=auto;html=1;exitX=0.5;exitY=1;exitDx=0;exitDy=0;entryX=0.5;entryY=0;entryDx=0;entryDy=0;" parent="WIyWlLk6GJQsqaUBKTNV-1" source="OTEBd1sAaOgXrENn2hJH-26" target="OTEBd1sAaOgXrENn2hJH-28" edge="1">
          <mxGeometry relative="1" as="geometry" />
        </mxCell>
        <mxCell id="OTEBd1sAaOgXrENn2hJH-26" value="j = p[j - 1]" style="rounded=0;whiteSpace=wrap;html=1;" parent="WIyWlLk6GJQsqaUBKTNV-1" vertex="1">
          <mxGeometry x="-400" y="420" width="120" height="60" as="geometry" />
        </mxCell>
        <mxCell id="OTEBd1sAaOgXrENn2hJH-38" style="edgeStyle=orthogonalEdgeStyle;rounded=0;orthogonalLoop=1;jettySize=auto;html=1;exitX=1;exitY=1;exitDx=0;exitDy=0;entryX=0;entryY=0.5;entryDx=0;entryDy=0;" parent="WIyWlLk6GJQsqaUBKTNV-1" source="OTEBd1sAaOgXrENn2hJH-28" target="OTEBd1sAaOgXrENn2hJH-35" edge="1">
          <mxGeometry relative="1" as="geometry">
            <Array as="points">
              <mxPoint x="-310" y="570" />
              <mxPoint x="-310" y="650" />
            </Array>
          </mxGeometry>
        </mxCell>
        <mxCell id="OTEBd1sAaOgXrENn2hJH-39" value="True" style="edgeLabel;html=1;align=center;verticalAlign=middle;resizable=0;points=[];" parent="OTEBd1sAaOgXrENn2hJH-38" vertex="1" connectable="0">
          <mxGeometry x="0.2" relative="1" as="geometry">
            <mxPoint as="offset" />
          </mxGeometry>
        </mxCell>
        <mxCell id="OTEBd1sAaOgXrENn2hJH-41" value="False" style="edgeStyle=orthogonalEdgeStyle;rounded=0;orthogonalLoop=1;jettySize=auto;html=1;exitX=0;exitY=1;exitDx=0;exitDy=0;entryX=0.5;entryY=0;entryDx=0;entryDy=0;" parent="WIyWlLk6GJQsqaUBKTNV-1" source="OTEBd1sAaOgXrENn2hJH-28" target="OTEBd1sAaOgXrENn2hJH-40" edge="1">
          <mxGeometry relative="1" as="geometry" />
        </mxCell>
        <mxCell id="OTEBd1sAaOgXrENn2hJH-28" value="toFind[j] == source[i + j - 2]" style="rhombus;whiteSpace=wrap;html=1;" parent="WIyWlLk6GJQsqaUBKTNV-1" vertex="1">
          <mxGeometry x="-523" y="510" width="220" height="80" as="geometry" />
        </mxCell>
        <mxCell id="OTEBd1sAaOgXrENn2hJH-31" style="edgeStyle=orthogonalEdgeStyle;rounded=0;orthogonalLoop=1;jettySize=auto;html=1;exitX=0.5;exitY=0;exitDx=0;exitDy=0;entryX=0.5;entryY=0;entryDx=0;entryDy=0;" parent="WIyWlLk6GJQsqaUBKTNV-1" source="OTEBd1sAaOgXrENn2hJH-30" target="OTEBd1sAaOgXrENn2hJH-28" edge="1">
          <mxGeometry relative="1" as="geometry" />
        </mxCell>
        <mxCell id="OTEBd1sAaOgXrENn2hJH-30" value="j += 1" style="rounded=0;whiteSpace=wrap;html=1;" parent="WIyWlLk6GJQsqaUBKTNV-1" vertex="1">
          <mxGeometry x="-200" y="520" width="120" height="60" as="geometry" />
        </mxCell>
        <mxCell id="OTEBd1sAaOgXrENn2hJH-36" style="edgeStyle=orthogonalEdgeStyle;rounded=0;orthogonalLoop=1;jettySize=auto;html=1;exitX=1;exitY=0.5;exitDx=0;exitDy=0;entryX=0.5;entryY=1;entryDx=0;entryDy=0;" parent="WIyWlLk6GJQsqaUBKTNV-1" source="OTEBd1sAaOgXrENn2hJH-35" target="OTEBd1sAaOgXrENn2hJH-30" edge="1">
          <mxGeometry relative="1" as="geometry" />
        </mxCell>
        <mxCell id="OTEBd1sAaOgXrENn2hJH-37" value="False" style="edgeLabel;html=1;align=center;verticalAlign=middle;resizable=0;points=[];" parent="OTEBd1sAaOgXrENn2hJH-36" vertex="1" connectable="0">
          <mxGeometry x="0.6" y="-1" relative="1" as="geometry">
            <mxPoint as="offset" />
          </mxGeometry>
        </mxCell>
        <mxCell id="OTEBd1sAaOgXrENn2hJH-42" value="True" style="edgeStyle=orthogonalEdgeStyle;rounded=0;orthogonalLoop=1;jettySize=auto;html=1;exitX=0;exitY=1;exitDx=0;exitDy=0;entryX=0.5;entryY=0;entryDx=0;entryDy=0;" parent="WIyWlLk6GJQsqaUBKTNV-1" source="OTEBd1sAaOgXrENn2hJH-35" target="OTEBd1sAaOgXrENn2hJH-40" edge="1">
          <mxGeometry relative="1" as="geometry" />
        </mxCell>
        <mxCell id="OTEBd1sAaOgXrENn2hJH-35" value="j + 1 == len(toFind)" style="rhombus;whiteSpace=wrap;html=1;" parent="WIyWlLk6GJQsqaUBKTNV-1" vertex="1">
          <mxGeometry x="-290" y="610" width="130" height="80" as="geometry" />
        </mxCell>
        <mxCell id="OTEBd1sAaOgXrENn2hJH-44" value="True" style="edgeStyle=orthogonalEdgeStyle;rounded=0;orthogonalLoop=1;jettySize=auto;html=1;exitX=1;exitY=0.5;exitDx=0;exitDy=0;entryX=0.5;entryY=0;entryDx=0;entryDy=0;" parent="WIyWlLk6GJQsqaUBKTNV-1" source="OTEBd1sAaOgXrENn2hJH-40" target="OTEBd1sAaOgXrENn2hJH-43" edge="1">
          <mxGeometry relative="1" as="geometry" />
        </mxCell>
        <mxCell id="OTEBd1sAaOgXrENn2hJH-48" style="edgeStyle=orthogonalEdgeStyle;rounded=0;orthogonalLoop=1;jettySize=auto;html=1;exitX=0;exitY=0.5;exitDx=0;exitDy=0;entryX=0.5;entryY=0;entryDx=0;entryDy=0;" parent="WIyWlLk6GJQsqaUBKTNV-1" source="OTEBd1sAaOgXrENn2hJH-40" target="OTEBd1sAaOgXrENn2hJH-47" edge="1">
          <mxGeometry relative="1" as="geometry" />
        </mxCell>
        <mxCell id="OTEBd1sAaOgXrENn2hJH-50" value="False" style="edgeLabel;html=1;align=center;verticalAlign=middle;resizable=0;points=[];" parent="OTEBd1sAaOgXrENn2hJH-48" vertex="1" connectable="0">
          <mxGeometry x="-0.0227" y="-2" relative="1" as="geometry">
            <mxPoint as="offset" />
          </mxGeometry>
        </mxCell>
        <mxCell id="OTEBd1sAaOgXrENn2hJH-40" value="j + 1 == len(to_find) and to_find[j] == source[i + j - 2]" style="rhombus;whiteSpace=wrap;html=1;" parent="WIyWlLk6GJQsqaUBKTNV-1" vertex="1">
          <mxGeometry x="-560" y="730" width="390" height="70" as="geometry" />
        </mxCell>
        <mxCell id="OTEBd1sAaOgXrENn2hJH-43" value="return i - j" style="rounded=1;whiteSpace=wrap;html=1;" parent="WIyWlLk6GJQsqaUBKTNV-1" vertex="1">
          <mxGeometry x="-210" y="830" width="120" height="60" as="geometry" />
        </mxCell>
        <mxCell id="OTEBd1sAaOgXrENn2hJH-52" style="edgeStyle=orthogonalEdgeStyle;rounded=0;orthogonalLoop=1;jettySize=auto;html=1;exitX=0.5;exitY=1;exitDx=0;exitDy=0;entryX=0;entryY=0.5;entryDx=0;entryDy=0;" parent="WIyWlLk6GJQsqaUBKTNV-1" source="OTEBd1sAaOgXrENn2hJH-47" target="OTEBd1sAaOgXrENn2hJH-24" edge="1">
          <mxGeometry relative="1" as="geometry">
            <Array as="points">
              <mxPoint x="-580" y="910" />
              <mxPoint x="-680" y="910" />
              <mxPoint x="-680" y="340" />
            </Array>
          </mxGeometry>
        </mxCell>
        <mxCell id="OTEBd1sAaOgXrENn2hJH-47" value="        i = i + max(1, j - p[j - 1])&lt;br/&gt;" style="rounded=0;whiteSpace=wrap;html=1;" parent="WIyWlLk6GJQsqaUBKTNV-1" vertex="1">
          <mxGeometry x="-660" y="830" width="160" height="60" as="geometry" />
        </mxCell>
        <mxCell id="OTEBd1sAaOgXrENn2hJH-53" value="return -1" style="rounded=1;whiteSpace=wrap;html=1;" parent="WIyWlLk6GJQsqaUBKTNV-1" vertex="1">
          <mxGeometry x="-200" y="390" width="120" height="60" as="geometry" />
        </mxCell>
        <mxCell id="rEwosR0XsUm29KbHniLh-0" value="Boyer Moor" style="rounded=0;whiteSpace=wrap;html=1;verticalAlign=top;" vertex="1" parent="WIyWlLk6GJQsqaUBKTNV-1">
          <mxGeometry x="500" y="40" width="630" height="900" as="geometry" />
        </mxCell>
        <mxCell id="rEwosR0XsUm29KbHniLh-3" style="edgeStyle=orthogonalEdgeStyle;rounded=0;orthogonalLoop=1;jettySize=auto;html=1;exitX=0.5;exitY=1;exitDx=0;exitDy=0;entryX=0.5;entryY=0;entryDx=0;entryDy=0;" edge="1" parent="WIyWlLk6GJQsqaUBKTNV-1" source="rEwosR0XsUm29KbHniLh-1" target="rEwosR0XsUm29KbHniLh-2">
          <mxGeometry relative="1" as="geometry" />
        </mxCell>
        <mxCell id="rEwosR0XsUm29KbHniLh-1" value="boyer_moor(source, toFind)" style="rounded=1;whiteSpace=wrap;html=1;" vertex="1" parent="WIyWlLk6GJQsqaUBKTNV-1">
          <mxGeometry x="695" y="70" width="170" height="60" as="geometry" />
        </mxCell>
        <mxCell id="rEwosR0XsUm29KbHniLh-5" style="edgeStyle=orthogonalEdgeStyle;rounded=0;orthogonalLoop=1;jettySize=auto;html=1;exitX=0.5;exitY=1;exitDx=0;exitDy=0;entryX=0.5;entryY=0;entryDx=0;entryDy=0;" edge="1" parent="WIyWlLk6GJQsqaUBKTNV-1" source="rEwosR0XsUm29KbHniLh-2" target="rEwosR0XsUm29KbHniLh-4">
          <mxGeometry relative="1" as="geometry" />
        </mxCell>
        <mxCell id="rEwosR0XsUm29KbHniLh-2" value="&lt;div&gt;pom = defaultdict(lambda: -1)&lt;/div&gt;&lt;div&gt;i = len(toFind) - 1&lt;/div&gt;&lt;div align=&quot;center&quot;&gt;j = len(toFind) - 1&lt;br&gt;&lt;/div&gt;" style="rounded=0;whiteSpace=wrap;html=1;" vertex="1" parent="WIyWlLk6GJQsqaUBKTNV-1">
          <mxGeometry x="700" y="150" width="160" height="60" as="geometry" />
        </mxCell>
        <mxCell id="rEwosR0XsUm29KbHniLh-10" style="edgeStyle=orthogonalEdgeStyle;rounded=0;orthogonalLoop=1;jettySize=auto;html=1;exitX=0.5;exitY=1;exitDx=0;exitDy=0;entryX=0.5;entryY=0;entryDx=0;entryDy=0;" edge="1" parent="WIyWlLk6GJQsqaUBKTNV-1" source="rEwosR0XsUm29KbHniLh-4" target="rEwosR0XsUm29KbHniLh-9">
          <mxGeometry relative="1" as="geometry" />
        </mxCell>
        <mxCell id="rEwosR0XsUm29KbHniLh-4" value="for x in set(toFind)" style="rounded=0;whiteSpace=wrap;html=1;verticalAlign=top;" vertex="1" parent="WIyWlLk6GJQsqaUBKTNV-1">
          <mxGeometry x="510" y="230" width="540" height="140" as="geometry" />
        </mxCell>
        <mxCell id="rEwosR0XsUm29KbHniLh-8" value="pom[x] = toFind.rindex(x)" style="shape=parallelogram;perimeter=parallelogramPerimeter;whiteSpace=wrap;html=1;fixedSize=1;" vertex="1" parent="WIyWlLk6GJQsqaUBKTNV-1">
          <mxGeometry x="600" y="280" width="360" height="60" as="geometry" />
        </mxCell>
        <mxCell id="rEwosR0XsUm29KbHniLh-12" style="edgeStyle=orthogonalEdgeStyle;rounded=0;orthogonalLoop=1;jettySize=auto;html=1;exitX=0;exitY=0.5;exitDx=0;exitDy=0;entryX=0.5;entryY=0;entryDx=0;entryDy=0;" edge="1" parent="WIyWlLk6GJQsqaUBKTNV-1" source="rEwosR0XsUm29KbHniLh-9" target="rEwosR0XsUm29KbHniLh-11">
          <mxGeometry relative="1" as="geometry" />
        </mxCell>
        <mxCell id="rEwosR0XsUm29KbHniLh-13" value="False" style="edgeLabel;html=1;align=center;verticalAlign=middle;resizable=0;points=[];" vertex="1" connectable="0" parent="rEwosR0XsUm29KbHniLh-12">
          <mxGeometry x="-0.0375" y="2" relative="1" as="geometry">
            <mxPoint as="offset" />
          </mxGeometry>
        </mxCell>
        <mxCell id="rEwosR0XsUm29KbHniLh-15" style="edgeStyle=orthogonalEdgeStyle;rounded=0;orthogonalLoop=1;jettySize=auto;html=1;exitX=1;exitY=0.5;exitDx=0;exitDy=0;entryX=0.5;entryY=0;entryDx=0;entryDy=0;" edge="1" parent="WIyWlLk6GJQsqaUBKTNV-1" source="rEwosR0XsUm29KbHniLh-9" target="rEwosR0XsUm29KbHniLh-14">
          <mxGeometry relative="1" as="geometry" />
        </mxCell>
        <mxCell id="rEwosR0XsUm29KbHniLh-16" value="True" style="edgeLabel;html=1;align=center;verticalAlign=middle;resizable=0;points=[];" vertex="1" connectable="0" parent="rEwosR0XsUm29KbHniLh-15">
          <mxGeometry x="0.168" y="3" relative="1" as="geometry">
            <mxPoint as="offset" />
          </mxGeometry>
        </mxCell>
        <mxCell id="rEwosR0XsUm29KbHniLh-9" value="i &amp;lt; len(source)" style="rhombus;whiteSpace=wrap;html=1;" vertex="1" parent="WIyWlLk6GJQsqaUBKTNV-1">
          <mxGeometry x="710" y="410" width="140" height="80" as="geometry" />
        </mxCell>
        <mxCell id="rEwosR0XsUm29KbHniLh-11" value="return -1" style="rounded=1;whiteSpace=wrap;html=1;" vertex="1" parent="WIyWlLk6GJQsqaUBKTNV-1">
          <mxGeometry x="530" y="490" width="120" height="60" as="geometry" />
        </mxCell>
        <mxCell id="rEwosR0XsUm29KbHniLh-19" style="edgeStyle=orthogonalEdgeStyle;rounded=0;orthogonalLoop=1;jettySize=auto;html=1;exitX=0;exitY=0.5;exitDx=0;exitDy=0;entryX=0.5;entryY=0;entryDx=0;entryDy=0;" edge="1" parent="WIyWlLk6GJQsqaUBKTNV-1" source="rEwosR0XsUm29KbHniLh-14" target="rEwosR0XsUm29KbHniLh-18">
          <mxGeometry relative="1" as="geometry" />
        </mxCell>
        <mxCell id="rEwosR0XsUm29KbHniLh-20" value="False" style="edgeLabel;html=1;align=center;verticalAlign=middle;resizable=0;points=[];" vertex="1" connectable="0" parent="rEwosR0XsUm29KbHniLh-19">
          <mxGeometry x="0.0769" y="2" relative="1" as="geometry">
            <mxPoint as="offset" />
          </mxGeometry>
        </mxCell>
        <mxCell id="rEwosR0XsUm29KbHniLh-24" value="True" style="edgeStyle=orthogonalEdgeStyle;rounded=0;orthogonalLoop=1;jettySize=auto;html=1;exitX=1;exitY=0.5;exitDx=0;exitDy=0;entryX=0.5;entryY=0;entryDx=0;entryDy=0;" edge="1" parent="WIyWlLk6GJQsqaUBKTNV-1" source="rEwosR0XsUm29KbHniLh-14" target="rEwosR0XsUm29KbHniLh-22">
          <mxGeometry relative="1" as="geometry" />
        </mxCell>
        <mxCell id="rEwosR0XsUm29KbHniLh-14" value="source[i] = toFind[j]" style="rhombus;whiteSpace=wrap;html=1;" vertex="1" parent="WIyWlLk6GJQsqaUBKTNV-1">
          <mxGeometry x="850" y="490" width="130" height="80" as="geometry" />
        </mxCell>
        <mxCell id="rEwosR0XsUm29KbHniLh-21" style="edgeStyle=orthogonalEdgeStyle;rounded=0;orthogonalLoop=1;jettySize=auto;html=1;exitX=0.5;exitY=1;exitDx=0;exitDy=0;entryX=0.5;entryY=0;entryDx=0;entryDy=0;" edge="1" parent="WIyWlLk6GJQsqaUBKTNV-1" source="rEwosR0XsUm29KbHniLh-18" target="rEwosR0XsUm29KbHniLh-9">
          <mxGeometry relative="1" as="geometry">
            <Array as="points">
              <mxPoint x="670" y="680" />
              <mxPoint x="510" y="680" />
              <mxPoint x="510" y="390" />
              <mxPoint x="780" y="390" />
            </Array>
          </mxGeometry>
        </mxCell>
        <mxCell id="rEwosR0XsUm29KbHniLh-18" value="&lt;div align=&quot;left&quot;&gt;            i = i + len(to_find) - min(j, 1 + pom[source[i]])&lt;br&gt;            j = len(to_find) - 1&lt;br&gt;&lt;/div&gt;" style="rounded=0;whiteSpace=wrap;html=1;" vertex="1" parent="WIyWlLk6GJQsqaUBKTNV-1">
          <mxGeometry x="540" y="570" width="260" height="60" as="geometry" />
        </mxCell>
        <mxCell id="rEwosR0XsUm29KbHniLh-26" style="edgeStyle=orthogonalEdgeStyle;rounded=0;orthogonalLoop=1;jettySize=auto;html=1;exitX=1;exitY=0.5;exitDx=0;exitDy=0;entryX=0.5;entryY=0;entryDx=0;entryDy=0;" edge="1" parent="WIyWlLk6GJQsqaUBKTNV-1" source="rEwosR0XsUm29KbHniLh-22" target="rEwosR0XsUm29KbHniLh-25">
          <mxGeometry relative="1" as="geometry" />
        </mxCell>
        <mxCell id="rEwosR0XsUm29KbHniLh-27" value="True" style="edgeLabel;html=1;align=center;verticalAlign=middle;resizable=0;points=[];" vertex="1" connectable="0" parent="rEwosR0XsUm29KbHniLh-26">
          <mxGeometry x="-0.1333" y="1" relative="1" as="geometry">
            <mxPoint as="offset" />
          </mxGeometry>
        </mxCell>
        <mxCell id="rEwosR0XsUm29KbHniLh-29" style="edgeStyle=orthogonalEdgeStyle;rounded=0;orthogonalLoop=1;jettySize=auto;html=1;exitX=0;exitY=0.5;exitDx=0;exitDy=0;entryX=0.5;entryY=0;entryDx=0;entryDy=0;" edge="1" parent="WIyWlLk6GJQsqaUBKTNV-1" source="rEwosR0XsUm29KbHniLh-22" target="rEwosR0XsUm29KbHniLh-28">
          <mxGeometry relative="1" as="geometry" />
        </mxCell>
        <mxCell id="rEwosR0XsUm29KbHniLh-22" value="j == 0" style="rhombus;whiteSpace=wrap;html=1;" vertex="1" parent="WIyWlLk6GJQsqaUBKTNV-1">
          <mxGeometry x="980" y="570" width="80" height="80" as="geometry" />
        </mxCell>
        <mxCell id="rEwosR0XsUm29KbHniLh-25" value="return i" style="rounded=1;whiteSpace=wrap;html=1;" vertex="1" parent="WIyWlLk6GJQsqaUBKTNV-1">
          <mxGeometry x="1060" y="650" width="60" height="60" as="geometry" />
        </mxCell>
        <mxCell id="rEwosR0XsUm29KbHniLh-30" style="edgeStyle=orthogonalEdgeStyle;rounded=0;orthogonalLoop=1;jettySize=auto;html=1;exitX=0;exitY=0.5;exitDx=0;exitDy=0;entryX=0.5;entryY=0;entryDx=0;entryDy=0;" edge="1" parent="WIyWlLk6GJQsqaUBKTNV-1" source="rEwosR0XsUm29KbHniLh-28" target="rEwosR0XsUm29KbHniLh-9">
          <mxGeometry relative="1" as="geometry">
            <Array as="points">
              <mxPoint x="510" y="680" />
              <mxPoint x="510" y="390" />
              <mxPoint x="780" y="390" />
            </Array>
          </mxGeometry>
        </mxCell>
        <mxCell id="rEwosR0XsUm29KbHniLh-28" value="&lt;div&gt;i--&lt;/div&gt;&lt;div&gt;j--&lt;br&gt;&lt;/div&gt;" style="rounded=0;whiteSpace=wrap;html=1;" vertex="1" parent="WIyWlLk6GJQsqaUBKTNV-1">
          <mxGeometry x="880" y="650" width="100" height="60" as="geometry" />
        </mxCell>
      </root>
    </mxGraphModel>
  </diagram>
</mxfile>
